<svg width="12" height="20" viewBox="0 0 12 20" fill="none" xmlns="http://www.w3.org/2000/svg">
<path d="M1.5 19.75C1.0875 19.75 0.734375 19.6031 0.440625 19.3094C0.146875 19.0156 0 18.6625 0 18.25V10.75C0 10.3375 0.146875 9.98438 0.440625 9.69063C0.734375 9.39688 1.0875 9.25 1.5 9.25H2.25V7.75C2.25 6.7125 2.61562 5.82812 3.34687 5.09687C4.07812 4.36562 4.9625 4 6 4C7.0375 4 7.92187 4.36562 8.65312 5.09687C9.38437 5.82812 9.75 6.7125 9.75 7.75V9.25H10.5C10.9125 9.25 11.2656 9.39688 11.5594 9.69063C11.8531 9.98438 12 10.3375 12 10.75V18.25C12 18.6625 11.8531 19.0156 11.5594 19.3094C11.2656 19.6031 10.9125 19.75 10.5 19.75H1.5V19.75M1.5 18.25H10.5V18.25V18.25V10.75V10.75V10.75H1.5V10.75V10.75V18.25V18.25V18.25V18.25M6 16C6.4125 16 6.76562 15.8531 7.05937 15.5594C7.35312 15.2656 7.5 14.9125 7.5 14.5C7.5 14.0875 7.35312 13.7344 7.05937 13.4406C6.76562 13.1469 6.4125 13 6 13C5.5875 13 5.23438 13.1469 4.94063 13.4406C4.64688 13.7344 4.5 14.0875 4.5 14.5C4.5 14.9125 4.64688 15.2656 4.94063 15.5594C5.23438 15.8531 5.5875 16 6 16V16M3.75 9.25H8.25V7.75C8.25 7.125 8.03125 6.59375 7.59375 6.15625C7.15625 5.71875 6.625 5.5 6 5.5C5.375 5.5 4.84375 5.71875 4.40625 6.15625C3.96875 6.59375 3.75 7.125 3.75 7.75V9.25V9.25M1.5 18.25V18.25V18.25V10.75V10.75V10.75V10.75V10.75V10.75V18.25V18.25V18.25V18.25V18.25" fill="#6D7A77"/>
</svg>
